<svg version="1.1" xmlns="http://www.w3.org/2000/svg" xmlns:xlink="http://www.w3.org/1999/xlink" viewBox="0 0 172 172"><g transform=""><g fill="none" fill-rule="nonzero" stroke="none" stroke-width="1" stroke-linecap="butt" stroke-linejoin="miter" stroke-miterlimit="10" stroke-dasharray="" stroke-dashoffset="0" font-family="none" font-weight="none" font-size="none" text-anchor="none" style="mix-blend-mode: normal"><path d="M0,172v-172h172v172z" fill="#cccccc"></path><path d="" fill="none"></path><path d="" fill="none"></path><path d="" fill="none"></path><path d="" fill="none"></path><g fill="#ffffff"><path d="M62.1012,32.63974v6.07312h7.48707v-6.07312zM62.1012,42.07223v19.20224h7.48707v-19.20224zM54.75257,64.63385v6.92871h56.7695v-6.92871zM41.23239,74.92062c-3.41602,-0.00893 -6.49424,2.06018 -7.77577,5.22671l-7.21281,17.67543h91.00297l14.12316,-9.16151c0.27204,-0.17683 0.58953,-0.27096 0.91399,-0.27098h4.61717l-3.29507,-8.20225c-1.2698,-3.18951 -4.36052,-5.27844 -7.79349,-5.2674zM44.66788,83.01331h14.05426c0.92767,0 1.67969,0.75202 1.67969,1.67969v6.44711c0,0.92767 -0.75202,1.67969 -1.67969,1.67969h-14.05295c-0.92767,0 -1.67969,-0.75202 -1.67969,-1.67969l-0.00131,-6.44711c0,-0.92767 0.75202,-1.67969 1.67969,-1.67969zM74.53745,83.01331h14.0536c0.92767,0 1.67969,0.75202 1.67969,1.67969v6.44711c0,0.92767 -0.75202,1.67969 -1.67969,1.67969h-14.05229c-0.92767,0 -1.67969,-0.75202 -1.67969,-1.67969l-0.00131,-6.44711c0,-0.92767 0.75202,-1.67969 1.67969,-1.67969zM104.40636,83.01331h14.0536c0.92767,0 1.67969,0.75202 1.67969,1.67969v6.44711c0,0.92767 -0.75202,1.67969 -1.67969,1.67969h-14.05032c-0.92767,0 -1.67969,-0.75202 -1.67969,-1.67969l-0.00328,-6.44711c0,-0.92767 0.75202,-1.67969 1.67969,-1.67969zM46.34888,86.37268v3.08905h10.69423v-3.08905zM76.21844,86.37268v3.08905h10.69423v-3.08905zM106.08736,86.37268v3.08905h10.69423v-3.08905zM132.78127,91.74965l-14.12316,9.16217c-0.27225,0.17682 -0.59001,0.27074 -0.91464,0.27033h-108.24405l11.3497,38.17811h115.97192l25.67954,-47.61061zM90.64867,110.8515c2.88842,-0.00003 5.49244,1.7399 6.59781,4.40845c1.10536,2.66855 0.49438,5.74019 -1.54804,7.78261c-2.04242,2.04242 -5.11406,2.6534 -7.78261,1.54804c-2.66855,-1.10536 -4.40848,-3.70938 -4.40845,-6.5978c0.00429,-3.94225 3.19905,-7.13701 7.1413,-7.1413zM110.80492,110.8515c2.88842,-0.00003 5.49244,1.7399 6.59781,4.40845c1.10536,2.66855 0.49438,5.74019 -1.54804,7.78261c-2.04242,2.04242 -5.11406,2.6534 -7.78261,1.54804c-2.66855,-1.10536 -4.40848,-3.70938 -4.40845,-6.5978c0.00429,-3.94225 3.19905,-7.13701 7.1413,-7.1413zM130.96313,110.8515c3.94199,0.00465 7.13635,3.1993 7.14064,7.1413c0.00002,2.88848 -1.73997,5.49254 -4.4086,6.59787c-2.66863,1.10532 -5.74032,0.49422 -7.78269,-1.54834c-2.04237,-2.04256 -2.65319,-5.11431 -1.54762,-7.78283c1.10557,-2.66853 3.70979,-4.40829 6.59827,-4.408zM70.70106,110.85478c3.89701,0.12024 6.97732,3.34385 6.92035,7.2423c-0.05696,3.89845 -3.23014,7.03068 -7.129,7.03701c-3.94217,-0.00448 -7.13682,-3.19912 -7.1413,-7.1413c0.00008,-1.93013 0.78143,-3.77803 2.16605,-5.12273c1.38462,-1.3447 3.25459,-2.07167 5.18389,-2.01529zM29.88597,110.85806c1.94347,-0.0804 3.83564,0.63543 5.23924,1.98206c1.4036,1.34664 2.19717,3.20755 2.19731,5.15268c-0.00448,3.94268 -3.19992,7.13754 -7.14261,7.1413c-3.88107,-0.00796 -7.04531,-3.11408 -7.12521,-6.99433c-0.07989,-3.88026 2.95381,-7.114 6.83126,-7.2817zM50.04222,110.85806c1.94347,-0.0804 3.83564,0.63543 5.23924,1.98206c1.4036,1.34664 2.19717,3.20755 2.19731,5.15268c-0.00448,3.94268 -3.19992,7.13754 -7.14261,7.1413c-3.88107,-0.00796 -7.04531,-3.11408 -7.12521,-6.99433c-0.07989,-3.88026 2.95381,-7.114 6.83126,-7.2817zM30.17992,114.21088c-1.35632,-0.00778 -2.61294,0.71135 -3.29336,1.88467c-0.68041,1.17333 -0.68041,2.62117 0,3.7945c0.68041,1.17333 1.93704,1.89245 3.29336,1.88467c1.35632,0.00778 2.61294,-0.71135 3.29336,-1.88467c0.68041,-1.17333 0.68041,-2.62117 0,-3.7945c-0.68041,-1.17333 -1.93704,-1.89245 -3.29336,-1.88467zM50.33617,114.21088c-1.35632,-0.00778 -2.61294,0.71135 -3.29336,1.88467c-0.68041,1.17333 -0.68041,2.62117 0,3.7945c0.68041,1.17333 1.93704,1.89245 3.29336,1.88467c1.35632,0.00778 2.61294,-0.71135 3.29336,-1.88467c0.68041,-1.17333 0.68041,-2.62117 0,-3.7945c-0.68041,-1.17333 -1.93704,-1.89245 -3.29336,-1.88467zM70.49242,114.21088c-1.35632,-0.00778 -2.61294,0.71135 -3.29336,1.88467c-0.68041,1.17333 -0.68041,2.62117 0,3.7945c0.68041,1.17333 1.93704,1.89245 3.29336,1.88467c1.35632,0.00778 2.61294,-0.71135 3.29336,-1.88467c0.68041,-1.17333 0.68041,-2.62117 0,-3.7945c-0.68041,-1.17333 -1.93704,-1.89245 -3.29336,-1.88467zM90.64867,114.21088c-1.35632,-0.00778 -2.61294,0.71135 -3.29336,1.88467c-0.68041,1.17333 -0.68041,2.62117 0,3.7945c0.68041,1.17333 1.93704,1.89245 3.29336,1.88467c1.35632,0.00778 2.61294,-0.71135 3.29336,-1.88467c0.68041,-1.17333 0.68041,-2.62117 0,-3.7945c-0.68041,-1.17333 -1.93704,-1.89245 -3.29336,-1.88467zM110.80492,114.21088c-1.35632,-0.00778 -2.61294,0.71135 -3.29336,1.88467c-0.68041,1.17333 -0.68041,2.62117 0,3.7945c0.68041,1.17333 1.93704,1.89245 3.29336,1.88467c1.35632,0.00778 2.61294,-0.71135 3.29336,-1.88467c0.68041,-1.17333 0.68041,-2.62117 0,-3.7945c-0.68041,-1.17333 -1.93704,-1.89245 -3.29336,-1.88467zM130.96117,114.21088c-1.35632,-0.00778 -2.61294,0.71135 -3.29336,1.88467c-0.68041,1.17333 -0.68041,2.62117 0,3.7945c0.68041,1.17333 1.93704,1.89245 3.29336,1.88467c1.35632,0.00778 2.61294,-0.71135 3.29336,-1.88467c0.68041,-1.17333 0.68041,-2.62117 0,-3.7945c-0.68041,-1.17333 -1.93704,-1.89245 -3.29336,-1.88467zM75.9724,131.43948h2.40208c0.92767,0 1.67969,0.75202 1.67969,1.67969c0,0.92767 -0.75202,1.67969 -1.67969,1.67969h-2.40208c-0.92767,0 -1.67969,-0.75202 -1.67969,-1.67969c0,-0.92767 0.75202,-1.67969 1.67969,-1.67969zM85.0788,131.43948h48.33629c0.92767,0 1.67969,0.75202 1.67969,1.67969c0,0.92767 -0.75202,1.67969 -1.67969,1.67969h-48.33629c-0.92767,0 -1.67969,-0.75202 -1.67969,-1.67969c0,-0.92767 0.75202,-1.67969 1.67969,-1.67969z"></path></g></g></g></svg>